<svg width="235" height="83" viewBox="0 0 235 83" fill="none" xmlns="http://www.w3.org/2000/svg">
<g filter="url(#filter0_d)">
<path d="M49.0265 49.49C45.0832 49.49 42.0732 48.3933 39.9965 46.2C37.9432 44.0067 36.9165 40.8917 36.9165 36.855C36.9165 34.8483 37.2315 33.0633 37.8615 31.5C38.4915 29.9133 39.3548 28.5833 40.4515 27.51C41.5482 26.4133 42.8548 25.585 44.3715 25.025C45.8882 24.465 47.5332 24.185 49.3065 24.185C50.3332 24.185 51.2665 24.2667 52.1065 24.43C52.9465 24.57 53.6815 24.745 54.3115 24.955C54.9415 25.1417 55.4665 25.34 55.8865 25.55C56.3065 25.76 56.6098 25.9233 56.7965 26.04L55.2215 30.45C54.4748 30.0533 53.5998 29.715 52.5965 29.435C51.6165 29.155 50.4965 29.015 49.2365 29.015C48.3965 29.015 47.5682 29.155 46.7515 29.435C45.9582 29.715 45.2465 30.17 44.6165 30.8C44.0098 31.4067 43.5198 32.2 43.1465 33.18C42.7732 34.16 42.5865 35.35 42.5865 36.75C42.5865 37.87 42.7032 38.92 42.9365 39.9C43.1932 40.8567 43.5898 41.685 44.1265 42.385C44.6865 43.085 45.4098 43.645 46.2965 44.065C47.1832 44.4617 48.2565 44.66 49.5165 44.66C50.3098 44.66 51.0215 44.6133 51.6515 44.52C52.2815 44.4267 52.8415 44.3217 53.3315 44.205C53.8215 44.065 54.2532 43.9133 54.6265 43.75C54.9998 43.5867 55.3382 43.435 55.6415 43.295L57.1465 47.67C56.3765 48.1367 55.2915 48.5567 53.8915 48.93C52.4915 49.3033 50.8698 49.49 49.0265 49.49ZM76.6568 30.59C75.6068 34.1367 74.5102 37.4617 73.3668 40.565C72.2235 43.6683 70.9752 46.6783 69.6218 49.595C69.1318 50.645 68.6418 51.5317 68.1518 52.255C67.6618 53.0017 67.1252 53.6083 66.5418 54.075C65.9585 54.565 65.2935 54.915 64.5468 55.125C63.8235 55.3583 62.9718 55.475 61.9918 55.475C61.1752 55.475 60.4168 55.3933 59.7168 55.23C59.0402 55.09 58.4802 54.9267 58.0368 54.74L58.9468 50.575C59.4835 50.7617 59.9618 50.89 60.3818 50.96C60.8018 51.03 61.2452 51.065 61.7118 51.065C62.6452 51.065 63.3568 50.8083 63.8468 50.295C64.3602 49.805 64.7918 49.1167 65.1418 48.23C63.9518 45.8967 62.7618 43.2833 61.5718 40.39C60.3818 37.4733 59.2618 34.2067 58.2118 30.59H63.7418C63.9752 31.5 64.2435 32.4917 64.5468 33.565C64.8735 34.615 65.2118 35.6883 65.5618 36.785C65.9118 37.8583 66.2618 38.9083 66.6118 39.935C66.9852 40.9617 67.3352 41.895 67.6618 42.735C67.9652 41.895 68.2802 40.9617 68.6068 39.935C68.9335 38.9083 69.2485 37.8583 69.5518 36.785C69.8785 35.6883 70.1818 34.615 70.4618 33.565C70.7652 32.4917 71.0335 31.5 71.2668 30.59H76.6568ZM91.2475 39.655C91.2475 36.295 90.0108 34.615 87.5375 34.615C87.0008 34.615 86.4641 34.685 85.9275 34.825C85.4141 34.965 84.9941 35.14 84.6675 35.35V44.835C84.9241 44.8817 85.2508 44.9283 85.6475 44.975C86.0441 44.9983 86.4758 45.01 86.9425 45.01C88.3658 45.01 89.4391 44.52 90.1625 43.54C90.8858 42.56 91.2475 41.265 91.2475 39.655ZM96.5675 39.795C96.5675 41.265 96.3458 42.595 95.9025 43.785C95.4825 44.975 94.8641 45.99 94.0475 46.83C93.2308 47.67 92.2275 48.3233 91.0375 48.79C89.8475 49.2333 88.4941 49.455 86.9775 49.455C86.3475 49.455 85.6825 49.42 84.9825 49.35C84.3058 49.3033 83.6291 49.2333 82.9525 49.14C82.2991 49.0467 81.6691 48.9417 81.0625 48.825C80.4558 48.685 79.9191 48.545 79.4525 48.405V22.68L84.6675 21.84V31.01C85.2508 30.7533 85.8575 30.555 86.4875 30.415C87.1175 30.275 87.7941 30.205 88.5175 30.205C89.8241 30.205 90.9791 30.4383 91.9825 30.905C92.9858 31.3483 93.8258 31.99 94.5025 32.83C95.1791 33.67 95.6925 34.685 96.0425 35.875C96.3925 37.0417 96.5675 38.3483 96.5675 39.795ZM99.7005 39.935C99.7005 38.3017 99.9455 36.8783 100.435 35.665C100.949 34.4283 101.614 33.4017 102.43 32.585C103.247 31.7683 104.181 31.15 105.231 30.73C106.304 30.31 107.401 30.1 108.521 30.1C111.134 30.1 113.199 30.905 114.716 32.515C116.232 34.1017 116.991 36.4467 116.991 39.55C116.991 39.8533 116.979 40.1917 116.956 40.565C116.932 40.915 116.909 41.23 116.886 41.51H105.056C105.172 42.5833 105.674 43.435 106.561 44.065C107.447 44.695 108.637 45.01 110.131 45.01C111.087 45.01 112.02 44.9283 112.931 44.765C113.864 44.5783 114.622 44.3567 115.206 44.1L115.906 48.335C115.626 48.475 115.252 48.615 114.786 48.755C114.319 48.895 113.794 49.0117 113.211 49.105C112.651 49.2217 112.044 49.315 111.391 49.385C110.737 49.455 110.084 49.49 109.431 49.49C107.774 49.49 106.327 49.245 105.091 48.755C103.877 48.265 102.862 47.6 102.045 46.76C101.252 45.8967 100.657 44.8817 100.26 43.715C99.8872 42.5483 99.7005 41.2883 99.7005 39.935ZM111.951 37.94C111.927 37.4967 111.846 37.065 111.706 36.645C111.589 36.225 111.391 35.8517 111.111 35.525C110.854 35.1983 110.516 34.93 110.095 34.72C109.699 34.51 109.197 34.405 108.591 34.405C108.007 34.405 107.506 34.51 107.086 34.72C106.665 34.9067 106.315 35.1633 106.036 35.49C105.756 35.8167 105.534 36.2017 105.371 36.645C105.231 37.065 105.126 37.4967 105.056 37.94H111.951ZM132.11 35.21C131.643 35.0933 131.095 34.9767 130.465 34.86C129.835 34.72 129.158 34.65 128.435 34.65C128.108 34.65 127.712 34.685 127.245 34.755C126.802 34.8017 126.463 34.86 126.23 34.93V49H121.015V31.57C121.948 31.2433 123.045 30.94 124.305 30.66C125.588 30.3567 127.012 30.205 128.575 30.205C128.855 30.205 129.193 30.2283 129.59 30.275C129.987 30.2983 130.383 30.345 130.78 30.415C131.177 30.4617 131.573 30.5317 131.97 30.625C132.367 30.695 132.705 30.7883 132.985 30.905L132.11 35.21ZM147.191 49.49C143.247 49.49 140.237 48.3933 138.161 46.2C136.107 44.0067 135.081 40.8917 135.081 36.855C135.081 34.8483 135.396 33.0633 136.026 31.5C136.656 29.9133 137.519 28.5833 138.616 27.51C139.712 26.4133 141.019 25.585 142.536 25.025C144.052 24.465 145.697 24.185 147.471 24.185C148.497 24.185 149.431 24.2667 150.271 24.43C151.111 24.57 151.846 24.745 152.476 24.955C153.106 25.1417 153.631 25.34 154.051 25.55C154.471 25.76 154.774 25.9233 154.961 26.04L153.386 30.45C152.639 30.0533 151.764 29.715 150.761 29.435C149.781 29.155 148.661 29.015 147.401 29.015C146.561 29.015 145.732 29.155 144.916 29.435C144.122 29.715 143.411 30.17 142.781 30.8C142.174 31.4067 141.684 32.2 141.311 33.18C140.937 34.16 140.751 35.35 140.751 36.75C140.751 37.87 140.867 38.92 141.101 39.9C141.357 40.8567 141.754 41.685 142.291 42.385C142.851 43.085 143.574 43.645 144.461 44.065C145.347 44.4617 146.421 44.66 147.681 44.66C148.474 44.66 149.186 44.6133 149.816 44.52C150.446 44.4267 151.006 44.3217 151.496 44.205C151.986 44.065 152.417 43.9133 152.791 43.75C153.164 43.5867 153.502 43.435 153.806 43.295L155.311 47.67C154.541 48.1367 153.456 48.5567 152.056 48.93C150.656 49.3033 149.034 49.49 147.191 49.49ZM165.826 49.35C164.309 49.3267 163.073 49.1633 162.116 48.86C161.183 48.5567 160.436 48.1367 159.876 47.6C159.339 47.04 158.966 46.375 158.756 45.605C158.569 44.8117 158.476 43.925 158.476 42.945V22.68L163.691 21.84V41.895C163.691 42.3617 163.726 42.7817 163.796 43.155C163.866 43.5283 163.994 43.8433 164.181 44.1C164.391 44.3567 164.683 44.5667 165.056 44.73C165.429 44.8933 165.931 44.9983 166.561 45.045L165.826 49.35ZM185.265 48.37C184.378 48.6267 183.235 48.86 181.835 49.07C180.435 49.3033 178.965 49.42 177.425 49.42C175.862 49.42 174.555 49.21 173.505 48.79C172.478 48.37 171.662 47.7867 171.055 47.04C170.448 46.27 170.017 45.36 169.76 44.31C169.503 43.26 169.375 42.105 169.375 40.845V30.59H174.59V40.215C174.59 41.895 174.812 43.1083 175.255 43.855C175.698 44.6017 176.527 44.975 177.74 44.975C178.113 44.975 178.51 44.9633 178.93 44.94C179.35 44.8933 179.723 44.8467 180.05 44.8V30.59H185.265V48.37ZM201.955 39.655C201.955 36.295 200.719 34.615 198.245 34.615C197.709 34.615 197.172 34.685 196.635 34.825C196.122 34.965 195.702 35.14 195.375 35.35V44.835C195.632 44.8817 195.959 44.9283 196.355 44.975C196.752 44.9983 197.184 45.01 197.65 45.01C199.074 45.01 200.147 44.52 200.87 43.54C201.594 42.56 201.955 41.265 201.955 39.655ZM207.275 39.795C207.275 41.265 207.054 42.595 206.61 43.785C206.19 44.975 205.572 45.99 204.755 46.83C203.939 47.67 202.935 48.3233 201.745 48.79C200.555 49.2333 199.202 49.455 197.685 49.455C197.055 49.455 196.39 49.42 195.69 49.35C195.014 49.3033 194.337 49.2333 193.66 49.14C193.007 49.0467 192.377 48.9417 191.77 48.825C191.164 48.685 190.627 48.545 190.16 48.405V22.68L195.375 21.84V31.01C195.959 30.7533 196.565 30.555 197.195 30.415C197.825 30.275 198.502 30.205 199.225 30.205C200.532 30.205 201.687 30.4383 202.69 30.905C203.694 31.3483 204.534 31.99 205.21 32.83C205.887 33.67 206.4 34.685 206.75 35.875C207.1 37.0417 207.275 38.3483 207.275 39.795Z" fill="#00CF02"/>
</g>
<g clip-path="url(#clip0)">
<path d="M25.5624 37.7469C25.5705 37.7186 25.5781 37.6901 25.5854 37.6616C25.9385 36.448 25.8192 35.1457 25.2515 34.0165C24.6838 32.8872 23.7096 32.0147 22.5249 31.5743L13.1429 28.1136C11.9424 27.6646 10.6149 27.6967 9.43755 28.2033C8.26021 28.7098 7.32409 29.6516 6.82466 30.832C6.78794 30.9026 6.75675 30.9785 6.72491 31.0649L4.47197 37.1726C4.15185 38.0404 4.1893 39.0167 4.57394 39.8493C4.96553 40.6913 5.67368 41.3448 6.54444 41.6676C8.23321 42.2905 9.23978 41.5959 10.8664 40.0642C11.1044 39.8408 12.4892 38.5311 14.3732 39.226C16.2458 39.9168 16.4591 41.8149 16.4956 42.1406C16.7454 44.3645 17.0524 45.5436 18.7411 46.1665C19.609 46.4866 20.5853 46.4492 21.4178 46.0646C22.2599 45.673 22.9133 44.9648 23.2361 44.0941L25.4856 37.9957C25.5185 37.9066 25.5441 37.8254 25.5624 37.7469ZM10.7096 34.7101C10.4576 34.6236 10.2255 34.4876 10.0268 34.3101C9.82813 34.1326 9.6669 33.9173 9.5526 33.6766C9.43829 33.436 9.37322 33.1749 9.36119 32.9088C9.34917 32.6427 9.39043 32.3768 9.48257 32.1268C9.5747 31.8769 9.71585 31.6478 9.89772 31.4532C10.0796 31.2585 10.2985 31.1021 10.5417 30.9932C10.7848 30.8843 11.0472 30.8251 11.3136 30.819C11.5799 30.813 11.8448 30.8602 12.0926 30.9579C12.5789 31.1495 12.9708 31.524 13.1844 32.001C13.3981 32.478 13.4165 33.0198 13.2357 33.5102C13.055 34.0006 12.6894 34.4008 12.2173 34.6251C11.7451 34.8493 11.204 34.8799 10.7096 34.7101ZM21.822 33.4798C22.0709 33.5716 22.2731 33.7585 22.3841 33.9993C22.4951 34.2402 22.506 34.5153 22.4142 34.7641C22.3224 35.0129 22.1355 35.2151 21.8947 35.3261C21.6538 35.4372 21.3787 35.448 21.1299 35.3562C20.8811 35.2644 20.6789 35.0776 20.5679 34.8367C20.4568 34.5959 20.446 34.3208 20.5378 34.0719C20.6296 33.8231 20.8164 33.6209 21.0573 33.5099C21.2981 33.3988 21.5732 33.388 21.822 33.4798ZM18.5613 36.5405C18.3125 36.4487 18.1103 36.2618 17.9993 36.021C17.8882 35.7801 17.8774 35.505 17.9692 35.2562C18.061 35.0074 18.2479 34.8052 18.4887 34.6942C18.7296 34.5831 19.0047 34.5723 19.2535 34.6641C19.5023 34.7559 19.7045 34.9427 19.8155 35.1836C19.9266 35.4244 19.9374 35.6995 19.8456 35.9483C19.7538 36.1972 19.567 36.3994 19.3261 36.5104C19.0853 36.6214 18.8102 36.6323 18.5613 36.5405ZM19.7456 39.109C19.4968 39.0173 19.2946 38.8304 19.1836 38.5895C19.0725 38.3487 19.0617 38.0736 19.1535 37.8248C19.2453 37.5759 19.4321 37.3738 19.673 37.2627C19.9138 37.1517 20.1889 37.1408 20.4378 37.2326C20.6866 37.3244 20.8888 37.5113 20.9998 37.7521C21.1109 37.993 21.1217 38.2681 21.0299 38.5169C20.9381 38.7657 20.7512 38.9679 20.5104 39.079C20.2695 39.19 19.9944 39.2008 19.7456 39.109ZM22.3142 37.9248C22.0653 37.833 21.8632 37.6461 21.7521 37.4053C21.6411 37.1644 21.6303 36.8893 21.722 36.6405C21.8138 36.3917 22.0007 36.1895 22.2415 36.0784C22.4824 35.9674 22.7575 35.9566 23.0063 36.0484C23.2551 36.1401 23.4573 36.327 23.5684 36.5679C23.6794 36.8087 23.6902 37.0838 23.5984 37.3326C23.5067 37.5815 23.3198 37.7836 23.0789 37.8947C22.8381 38.0057 22.563 38.0166 22.3142 37.9248Z" fill="white"/>
</g>
<g clip-path="url(#clip1)">
<path d="M226.044 13.6866C226.03 13.6609 226.015 13.6354 226 13.6101C225.39 12.5027 224.385 11.667 223.184 11.2709C221.984 10.8748 220.678 10.9477 219.53 11.4749L210.452 15.6692C209.286 16.2015 208.371 17.1636 207.897 18.3547C207.424 19.5457 207.429 20.8736 207.911 22.061C207.935 22.1369 207.967 22.2126 208.006 22.2962L210.736 28.2059C211.124 29.0456 211.841 29.7089 212.702 30.0249C213.575 30.3427 214.538 30.3033 215.381 29.9151C217.015 29.1602 217.235 27.9571 217.3 25.7238C217.31 25.3975 217.362 23.4921 219.185 22.6499C220.997 21.8128 222.491 23.0029 222.747 23.2072C224.497 24.6017 225.549 25.2176 227.183 24.4626C228.022 24.0747 228.686 23.3573 229.002 22.4964C229.319 21.6238 229.28 20.661 228.892 19.8174L226.166 13.9167C226.126 13.8305 226.087 13.755 226.044 13.6866ZM213.401 22.0518C213.161 22.169 212.901 22.2372 212.635 22.2524C212.369 22.2676 212.103 22.2296 211.852 22.1404C211.601 22.0513 211.37 21.9129 211.173 21.7334C210.976 21.5538 210.817 21.3368 210.706 21.095C210.594 20.8532 210.531 20.5915 210.522 20.3252C210.513 20.059 210.557 19.7936 210.652 19.5446C210.746 19.2956 210.89 19.068 211.074 18.8752C211.258 18.6825 211.478 18.5284 211.722 18.422C212.202 18.2133 212.744 18.2005 213.232 18.3864C213.721 18.5722 214.117 18.9419 214.336 19.4164C214.556 19.8908 214.581 20.4323 214.406 20.9248C214.231 21.4174 213.87 21.8219 213.401 22.0518ZM220.381 13.3186C220.622 13.2074 220.897 13.1964 221.146 13.2879C221.395 13.3795 221.597 13.5662 221.709 13.807C221.82 14.0478 221.831 14.3229 221.739 14.5718C221.648 14.8207 221.461 15.023 221.22 15.1342C220.98 15.2455 220.704 15.2565 220.456 15.1649C220.207 15.0733 220.004 14.8866 219.893 14.6459C219.782 14.4051 219.771 14.13 219.862 13.8811C219.954 13.6322 220.141 13.4299 220.381 13.3186ZM220.244 17.7886C220.003 17.8999 219.728 17.9109 219.479 17.8193C219.23 17.7278 219.028 17.541 218.916 17.3003C218.805 17.0595 218.794 16.7844 218.886 16.5355C218.977 16.2866 219.164 16.0843 219.405 15.9731C219.645 15.8618 219.921 15.8508 220.169 15.9424C220.418 16.034 220.621 16.2207 220.732 16.4614C220.843 16.7022 220.854 16.9773 220.763 17.2262C220.671 17.4751 220.484 17.6774 220.244 17.7886ZM222.898 18.7654C222.657 18.8766 222.382 18.8877 222.133 18.7961C221.884 18.7045 221.682 18.5178 221.571 18.277C221.46 18.0363 221.448 17.7612 221.54 17.5123C221.632 17.2634 221.818 17.061 222.059 16.9498C222.3 16.8386 222.575 16.8275 222.824 16.9191C223.073 17.0107 223.275 17.1974 223.386 17.4382C223.498 17.6789 223.509 17.954 223.417 18.2029C223.325 18.4518 223.139 18.6541 222.898 18.7654ZM223.875 16.1109C223.634 16.2222 223.359 16.2332 223.11 16.1416C222.861 16.0501 222.659 15.8633 222.547 15.6226C222.436 15.3818 222.425 15.1067 222.517 14.8578C222.608 14.6089 222.795 14.4066 223.036 14.2954C223.277 14.1841 223.552 14.1731 223.801 14.2647C224.049 14.3563 224.252 14.543 224.363 14.7837C224.474 15.0245 224.485 15.2996 224.394 15.5485C224.302 15.7974 224.115 15.9997 223.875 16.1109Z" fill="white"/>
</g>
<defs>
<filter id="filter0_d" x="9.91652" y="-5.16" width="224.359" height="87.635" filterUnits="userSpaceOnUse" color-interpolation-filters="sRGB">
<feFlood flood-opacity="0" result="BackgroundImageFix"/>
<feColorMatrix in="SourceAlpha" type="matrix" values="0 0 0 0 0 0 0 0 0 0 0 0 0 0 0 0 0 0 127 0" result="hardAlpha"/>
<feOffset/>
<feGaussianBlur stdDeviation="13.5"/>
<feComposite in2="hardAlpha" operator="out"/>
<feColorMatrix type="matrix" values="0 0 0 0 0 0 0 0 0 0.846 0 0 0 0 0.9 0 0 0 1 0"/>
<feBlend mode="normal" in2="BackgroundImageFix" result="effect1_dropShadow"/>
<feBlend mode="normal" in="SourceGraphic" in2="effect1_dropShadow" result="shape"/>
</filter>
<clipPath id="clip0">
<rect width="24" height="24" fill="white" transform="translate(8.30577 21) rotate(20.2473)"/>
</clipPath>
<clipPath id="clip1">
<rect width="24" height="24" fill="white" transform="translate(202 14.0662) rotate(-24.7983)"/>
</clipPath>
</defs>
</svg>
