<svg width="80" height="80" viewBox="0 0 80 80" fill="none" xmlns="http://www.w3.org/2000/svg">
<path d="M61.8565 9.4825L63.9026 22.2777L75.5518 28.1915L69.7042 39.8075L75.6276 51.4019L63.9006 57.3586L61.9015 70.1612L48.9995 68.1623L39.8316 77.3307L30.5967 68.0634L17.8017 70.209L15.7222 57.3144L4.13938 51.4336L10.0202 39.8176L4.13012 28.3226L15.7575 22.2997L17.7568 9.59659L30.5927 11.6951L39.7934 2.3609L48.995 11.5287L61.8565 9.4825ZM31.5424 23.2986C30.2233 23.301 28.9592 23.8274 28.0282 24.7618C27.0972 25.6963 26.5755 26.9623 26.5779 28.2814C26.5803 29.6005 27.1066 30.8646 28.0411 31.7956C28.9755 32.7267 30.2416 33.2484 31.5607 33.2459C32.8798 33.2435 34.1439 32.7172 35.0749 31.7827C36.0059 30.8483 36.5276 29.5822 36.5252 28.2632C36.5228 26.9441 35.9965 25.68 35.062 24.7489C34.1275 23.8179 32.8615 23.2962 31.5424 23.2986ZM48.1639 46.4786C46.8448 46.481 45.5807 47.0073 44.6496 47.9418C43.7186 48.8763 43.1969 50.1423 43.1993 51.4614C43.2018 52.7805 43.7281 54.0446 44.6625 54.9756C45.597 55.9066 46.863 56.4283 48.1821 56.4259C49.5012 56.4235 50.7653 55.8972 51.6964 54.9627C52.6274 54.0282 53.1491 52.7622 53.1467 51.4431C53.1442 50.124 52.6179 48.8599 51.6834 47.9289C50.749 46.9979 49.483 46.4762 48.1639 46.4786ZM27.9891 56.463L56.4193 27.9282L51.7355 23.2616L23.3053 51.7963L27.9891 56.463Z" fill="#FF0000"/>
</svg>
